<svg width="45" height="45" viewBox="0 0 45 45" fill="none" xmlns="http://www.w3.org/2000/svg">
<path d="M5.625 22.5C5.625 16.0718 5.625 12.8576 7.04771 10.484C7.89316 9.07343 9.07343 7.89316 10.484 7.04771C12.8576 5.625 16.0718 5.625 22.5 5.625V5.625C28.9282 5.625 32.1424 5.625 34.516 7.04771C35.9266 7.89316 37.1068 9.07343 37.9523 10.484C39.375 12.8576 39.375 16.0718 39.375 22.5V22.5C39.375 28.9282 39.375 32.1424 37.9523 34.516C37.1068 35.9266 35.9266 37.1068 34.516 37.9523C32.1424 39.375 28.9282 39.375 22.5 39.375V39.375C16.0718 39.375 12.8576 39.375 10.484 37.9523C9.07343 37.1068 7.89316 35.9266 7.04771 34.516C5.625 32.1424 5.625 28.9282 5.625 22.5V22.5Z" stroke="#248C2E" stroke-width="3"/>
<path d="M22.5 15L22.5 30" stroke="#248C2E" stroke-width="3" stroke-linecap="round" stroke-linejoin="round"/>
<path d="M30 22.5L15 22.5" stroke="#248C2E" stroke-width="3" stroke-linecap="round" stroke-linejoin="round"/>
</svg>
